<svg xmlns="http://www.w3.org/2000/svg" height="200" width="530">
    <style type="text/css">
        @import url('./assets/css/mainMenu.module.css');
    </style>
<g id="text" font-family="Rosario" letter-spacing="7px" font-size="150px" font-weight="700"><text x="30" y="150">BITe</text></g><g><circle r="25" cx="430" cy="100" fill="transparent"></circle><circle r="20" cx="430" cy="100" fill="#000"></circle><ellipse cx="427" cy="96" rx="10" ry="10" fill="#fff"></ellipse><ellipse cx="429" cy="98" rx="11" ry="12" fill="#"></ellipse><line x1="455" y1="100" x2="475" y2="102" style="stroke:#000;stroke-width:5"></line><circle r="10" cx="478" cy="103" fill="#000"></circle><ellipse cx="477" cy="101" rx="5" ry="5" fill="#fff"></ellipse><ellipse cx="479" cy="103" rx="6" ry="7" fill="#"></ellipse><line x1="440" y1="77" x2="450" y2="50" style="stroke:#000;stroke-width:5"></line><circle r="10" cx="451" cy="51" fill="#000"></circle><ellipse cx="450" cy="49" rx="5" ry="5" fill="#fff"></ellipse><ellipse cx="452" cy="51" rx="6" ry="7" fill="#"></ellipse><line x1="410" y1="85" x2="390" y2="73" style="stroke:#000;stroke-width:5"></line><circle r="10" cx="391" cy="74" fill="#000"></circle><ellipse cx="389" cy="72" rx="5" ry="5" fill="#fff"></ellipse><ellipse cx="391" cy="74" rx="6" ry="7" fill="#"></ellipse><line x1="410" y1="110" x2="390" y2="120" style="stroke:#000;stroke-width:5"></line><circle r="10" cx="391" cy="119" fill="#000"></circle><ellipse cx="389" cy="118" rx="5" ry="5" fill="#fff"></ellipse><ellipse cx="391" cy="120" rx="6" ry="7" fill="#"></ellipse><line x1="435" y1="125" x2="440" y2="140" style="stroke:#000;stroke-width:5"></line><circle r="10" cx="440" cy="141" fill="#000"></circle><ellipse cx="439" cy="140" rx="5" ry="5" fill="#fff"></ellipse><ellipse cx="441" cy="142" rx="6" ry="7" fill="#"></ellipse><animateTransform id="op"
      attributeName="transform"
      begin="2s;op.end+5s"
      dur="1s"
      type="rotate"
      from="0 430 100"
      to="360 430 100"
      /></g></svg>